# xmcd
#
# Track frame offsets:
#   150
#   18867
#   34359
#   50524
#   66803
#   86544
#   108016
#   122376
#   140974
#   157706
#   175838
#   198734
#   220091
#   242810
#   258556
#   284800
#   300939
#   327660
#
# Disc length: 4643 seconds
#
# Revision: 0
# Processed by: cddbd v1.5.1PL2 Copyright (c) Steve Scherf et al.
# Submitted via: Click'N Design 3D 5.1
#
DISCID=04122112
DTITLE=Texas Country  1 - Various
DYEAR=2006
DGENRE=Country
TTITLE0=1 San Antonio Girl
TTITLE1=2 Pearl Snap Shirts
TTITLE2=3 Llano Estacado
TTITLE3=4 Hooked On An 8 Second Ride
TTITLE4=5 The LIght On The Stage
TTITLE5=6  Texas Time Travelin'
TTITLE6=7 Whiskey Trip
TTITLE7=8 Speak Of The Devil
TTITLE8=9 Take Me Out To A Dancehall
TTITLE9=10 Corpus Christi Bay
TTITLE10=11 The Road Goes On Forever
TTITLE11=12 Walkin' Cane
TTITLE12=13 Gringo Honeymoon
TTITLE13=14 $50 And A Flask Of Crown
TTITLE14=15 Una Mas Cerveza
TTITLE15=16 Nothin' On But The Radio
TTITLE16=17 Somewhere In Texas
TTITLE17=18 Meet Me In Las Vegas
EXTD=
EXTT0=
EXTT1=
EXTT2=
EXTT3=
EXTT4=
EXTT5=
EXTT6=
EXTT7=
EXTT8=
EXTT9=
EXTT10=
EXTT11=
EXTT12=
EXTT13=
EXTT14=
EXTT15=
EXTT16=
EXTT17=
PLAYORDER=
